Coordinates
version=1
nRows=19
nColumns=36
inDegrees=yes

Units are S.I. units (second, meters, Newtons, ...)
If the header above contains a line with 'inDegrees', this indicates whether rotational values are in degrees (yes) or radians (no).

endheader
time	pelvis_tilt	pelvis_list	pelvis_rotation	pelvis_tx	pelvis_ty	pelvis_tz	hip_flexion_r	hip_adduction_r	hip_rotation_r	knee_angle_r	knee_angle_r_beta	ankle_angle_r	subtalar_angle_r	mtp_angle_r	hip_flexion_l	hip_adduction_l	hip_rotation_l	knee_angle_l	knee_angle_l_beta	ankle_angle_l	subtalar_angle_l	mtp_angle_l	lumbar_extension	lumbar_bending	lumbar_rotation	arm_flex_r	arm_add_r	arm_rot_r	elbow_flex_r	pro_sup_r	arm_flex_l	arm_add_l	arm_rot_l	elbow_flex_l	pro_sup_l
      1.04000000	      1.21803793	      1.31208020	      0.86111268	      1.07703807	      0.95205568	     -0.27883382	     23.12214989	     -0.60807115	     -2.01708335	      8.41161865	      0.14681044	     -0.68018777	    -14.26091106	     -7.28506106	    -13.32576803	      5.58843411	      1.26797130	      3.68466325	      0.06430951	     11.91699724	     -2.54403628	     -7.28506106	     -7.38690122	     -2.43220177	     -7.92996213	    -13.74061142	     -1.01507318	    -24.70072514	     29.10373485	    112.22084008	     17.72012366	     -8.51923117	      3.11584819	     46.54188299	    109.23027345
      1.05000000	      1.38347146	      1.37468887	      1.14244098	      1.08914024	      0.94992465	     -0.27866086	     22.70319020	     -0.60684211	     -2.34654191	      6.07742331	      0.10607105	      0.49021755	    -11.69946749	     -7.29676893	    -14.39577445	      5.52926442	      1.01446529	      3.58862313	      0.06263329	     12.64871490	     -1.66808230	     -7.29676893	     -7.64910810	     -2.50828458	     -8.23708443	    -13.92486589	     -0.84533435	    -25.55264356	     29.22585603	    112.27435460	     18.01977058	     -8.72353660	      3.37009443	     47.61114780	    109.22649884
      1.06000000	      1.21265187	      1.53964263	      1.40912764	      1.10114353	      0.94727723	     -0.27841481	     22.72448883	     -0.66463382	     -2.17144066	      4.15218596	      0.07246932	      0.75026976	    -10.90666183	     -7.29846607	    -14.99486209	      5.59894394	      1.09643946	      3.70093895	      0.06459357	     12.94510391	     -1.61598037	     -7.29846607	     -7.47063994	     -2.74567651	     -8.35965127	    -14.18764247	     -0.79858945	    -25.65961341	     29.06936611	    112.27371524	     18.41863500	     -8.73288897	      3.52861651	     48.19128552	    109.28143611
      1.07000000	      1.33376774	      1.59081622	      1.63271933	      1.11349442	      0.94507772	     -0.27806098	     22.46665934	     -0.61436999	     -2.41694393	      2.75399012	      0.04806620	      1.73313389	     -8.99414023	     -7.31031840	    -15.92987709	      5.49750100	      0.76444019	      3.80343409	      0.06638245	     13.57102901	     -0.74810648	     -7.31031840	     -7.63749643	     -2.82374022	     -8.65810557	    -14.26360325	     -0.74763027	    -26.06789292	     28.95043972	    112.32291172	     18.52214317	     -8.91182697	      3.66043792	     49.15326424	    109.28803724
      1.08000000	      1.18025616	      1.74189454	      1.82812315	      1.12585086	      0.94251410	     -0.27760864	     22.64802160	     -0.62680874	     -2.47022697	      1.93936971	      0.03384839	      2.00265508	     -8.77834113	     -7.31104915	    -16.51394409	      5.52775461	      0.72562419	      3.98643226	      0.06957637	     13.67136109	     -0.73746998	     -7.31104915	     -7.42226863	     -3.04209460	     -8.71379290	    -14.50154600	     -0.71237978	    -26.11375606	     28.80919872	    112.31453338	     18.76489827	     -8.87676794	      3.72266319	     49.51128802	    109.32183472
      1.09000000	      1.22694736	      1.75301204	      2.00867786	      1.13837657	      0.94032981	     -0.27711043	     22.48650309	     -0.48649707	     -2.16571372	      1.35121721	      0.02358319	      2.58359960	     -8.07863500	     -7.31269777	    -17.24116163	      5.37669626	      0.74991333	      4.36177053	      0.07612726	     13.88623681	     -0.56825211	     -7.31269777	     -7.47847142	     -3.05706979	     -8.83548085	    -14.56727430	     -0.75560342	    -26.25092076	     28.58490864	    112.28962429	     18.83304850	     -8.94348452	      3.92090249	     50.18918958	    109.39187666
      1.10000000	      1.32643568	      1.71974295	      2.16717160	      1.15142455	      0.93833734	     -0.27647347	     22.38884519	     -0.30803070	     -2.78174791	      1.41146045	      0.02463463	      3.91425855	     -6.19302291	     -7.32141381	    -17.99258206	      5.12045235	      0.20393178	      4.80925472	      0.08393733	     14.36459348	      0.56125172	     -7.32141381	     -7.50468247	     -3.03154702	     -9.22171474	    -14.46789749	     -0.80051357	    -26.48968138	     28.27643610	    112.27087578	     18.44412968	     -9.11490440	      3.64205535	     51.18213338	    109.38313264
      1.11000000	      1.33171477	      1.66811846	      2.29320710	      1.16454833	      0.93635952	     -0.27577935	     22.26098277	     -0.05434430	     -2.62260080	      1.53051323	      0.02671250	      4.12630149	     -6.20174162	     -7.32251754	    -18.60475593	      4.87964240	      0.19294289	      5.32409768	      0.09292303	     14.28411584	      0.58638105	     -7.32251754	     -7.38195844	     -2.96198739	     -9.22682553	    -14.59984552	     -0.86376829	    -26.53125206	     28.12478468	    112.26023305	     18.36583739	     -9.03636995	      3.65128382	     51.38891828	    109.39678702
      1.12000000	      1.37614099	      1.53041848	      2.36244356	      1.17800392	      0.93459137	     -0.27485219	     22.02984537	      0.33304362	     -2.46680925	      1.84407644	      0.03218521	      4.24505477	     -6.30965049	     -7.33127300	    -19.13038215	      4.50433776	     -0.32705219	      6.09185071	      0.10632285	     14.42835665	      1.27695507	     -7.33127300	     -7.27107268	     -2.81068763	     -9.46378145	    -14.47759546	     -0.98805124	    -26.58320470	     27.70525696	    112.24210230	     17.81282967	     -9.01974096	      3.10730053	     52.11108262	    109.37681092
      1.13000000	      1.41681438	      1.34512520	      2.41188116	      1.19158985	      0.93302743	     -0.27389780	     21.80016681	      0.76956157	     -2.29317066	      2.40024779	      0.04189223	      4.08244653	     -6.44737809	     -7.33225988	    -19.65989100	      4.10579282	     -0.30992568	      6.84065464	      0.11939195	     14.10514904	      1.27088764	     -7.33225988	     -7.13184379	     -2.56085387	     -9.40132712	    -14.55500748	     -1.08478254	    -26.61761644	     27.56011851	    112.22937630	     17.53679795	     -8.88880979	      3.05615220	     52.16552673	    109.37708360
      1.14000000	      1.44826396	      1.11330759	      2.39074196	      1.20547126	      0.93166357	     -0.27280840	     21.57692980	      1.28331635	     -2.23610008	      3.10219397	      0.05414350	      3.60790237	     -6.74270011	     -7.33333667	    -20.07992841	      3.67322191	     -0.49413061	      7.76745813	      0.13556772	     13.63908213	      1.23609751	     -7.33333667	     -6.92811225	     -2.23763823	     -9.30974770	    -14.60103616	     -1.20469188	    -26.68213288	     27.34982237	    112.20789570	     17.07938467	     -8.72824804	      2.86784167	     52.17605222	    109.36190318
      1.15000000	      1.36783422	      0.78504928	      2.30611274	      1.21956697	      0.93042857	     -0.27144962	     21.51589629	      1.91611420	     -2.35217219	      3.96076448	      0.06912838	      2.33248733	     -7.63392058	     -7.33563336	    -20.15397803	      3.10239986	     -1.19884552	      9.07077202	      0.15831484	     12.91115117	      1.19172786	     -7.33563336	     -6.53327002	     -1.87274758	     -9.23665855	    -14.51286428	     -1.37856544	    -26.77795057	     26.98594829	    112.17154305	     16.39561231	     -8.44184509	      2.19553705	     52.16805507	    109.31116294
      1.16000000	      1.25809825	      0.40409211	      2.11293117	      1.23377091	      0.92941315	     -0.26981034	     21.30423436	      2.69573064	     -1.34322343	      4.52756165	      0.07902086	     -0.28317909	    -10.39601997	     -7.34575476	    -20.13466948	      2.48518792	     -1.77970511	     10.51158765	      0.18346181	     12.40572219	      1.74581767	     -7.34575476	     -6.11793841	     -1.42677708	     -9.38755965	    -14.21499591	     -1.65989606	    -26.47185605	     26.44390083	    112.15781171	     15.30369862	     -8.11716123	      0.66338377	     52.52646172	    109.38457576
      1.17000000	      1.20490040	     -0.01754943	      1.89486482	      1.24817341	      0.92878136	     -0.26819626	     21.18947789	      3.44380022	     -1.09696158	      5.48390323	      0.09571217	     -2.07046324	    -11.69993553	     -7.35455410	    -20.05114834	      1.83641845	     -2.32026015	     12.14119434	      0.21190382	     11.33297841	      1.69685461	     -7.35455410	     -5.72621289	     -0.90729469	     -9.19725509	    -14.10217863	     -1.89084927	    -26.27068240	     26.11132569	    112.10907953	     14.51356683	     -7.75502490	     -0.08480170	     52.21253825	    109.48168490
      1.18000000	      1.25835631	     -0.44185785	      1.63336008	      1.26274178	      0.92860298	     -0.26649660	     21.02302406	      4.15230812	     -1.20399601	      6.65792351	      0.11620269	     -3.08622754	    -11.97880132	     -7.35631356	    -19.93643316	      1.17617409	     -2.88556116	     13.99873204	      0.24432397	      9.89893588	      1.53787378	     -7.35631356	     -5.45813704	     -0.35917756	     -8.86538322	    -14.06851667	     -2.07674104	    -26.28323790	     25.98483342	    112.08683000	     13.78526919	     -7.45473995	     -0.47387591	     51.70607326	    109.43696427
      1.19000000	      1.40555109	     -0.87144108	      1.36013687	      1.27729969	      0.92884271	     -0.26486672	     20.74093176	      4.83536891	     -1.04093791	      7.91293477	      0.13810677	     -3.84747194	    -12.33890640	     -7.35740896	    -19.77177820	      0.51106088	     -3.27599025	     16.08669851	      0.28076585	      8.37984448	      1.45801900	     -7.35740896	     -5.34252360	      0.19678060	     -8.52376298	    -13.93070726	     -2.27866126	    -26.29722068	     25.91128406	    112.07167147	     13.03242745	     -7.12395665	     -0.84922900	     51.16554736	    109.37977500
      1.20000000	      1.39986067	     -1.30687329	      1.00435136	      1.29203820	      0.92913801	     -0.26302982	     20.64977850	      5.53896214	     -0.90577655	      9.27752356	      0.16192333	     -4.60926525	    -13.20338881	     -7.35902749	    -19.11053821	     -0.25440682	     -4.32198828	     18.70092533	      0.32639272	      6.39627028	      1.25135606	     -7.35902749	     -4.97830399	      0.79720855	     -8.09872391	    -13.86201434	     -2.46221182	    -26.30218754	     25.79901424	    112.05302871	     12.14683165	     -6.72226907	     -1.52968895	     50.38947898	    109.29443950
      1.21000000	      1.45066135	     -1.76170008	      0.62974960	      1.30670095	      0.92972313	     -0.26106477	     20.44300006	      6.28998992	     -0.47436651	     10.65417634	      0.18595046	     -5.04696628	    -14.22627702	     -7.36079520	    -18.31228455	     -1.08378611	     -5.22437919	     21.61636552	      0.37727675	      4.25356287	      1.07795050	     -7.36079520	     -4.70343395	      1.35179859	     -7.65456611	    -13.72173497	     -2.62887164	    -26.27602685	     25.77475787	    112.04369918	     11.28357919	     -6.30766658	     -2.22030361	     49.57616693	    109.22222050
      1.22000000	      1.58550948	     -2.20466753	      0.27626277	      1.32112782	      0.93064047	     -0.25910536	     20.07344334	      7.02820944	      0.09865309	     11.97526322	      0.20900777	     -5.14813842	    -15.21595831	     -7.36255230	    -17.36251923	     -1.97154051	     -6.00580250	     24.82914317	      0.43335030	      1.88507328	      0.88407299	     -7.36255230	     -4.57243407	      1.92740702	     -7.18240413	    -13.53722279	     -2.77558729	    -26.22465938	     25.84694246	    112.04552475	     10.47018611	     -5.89662559	     -2.85922933	     48.72070936	    109.16348482
